# xmcd CD Database Entry
#
# Track frame offsets:
# 150
# 20504
# 49143
# 69259
# 91901
# 115645
#
# Disc length: 1950 seconds
#
# Revision: 2
# Processed by: cddbd v1.4PL0 Copyright (c) Steve Scherf et al.
# Submitted via: tcd 2.0b
#
DISCID=41079c06
DTITLE=quiet lIfe - fresh produce
DYEAR=1900
DGENRE=
TTITLE0=sunshine
TTITLE1=all the alright
TTITLE2=goldfish
TTITLE3=off the deep end
TTITLE4=white russian
TTITLE5=broken
EXTD=
EXTT0=
EXTT1=
EXTT2=
EXTT3=
EXTT4=
EXTT5=
PLAYORDER=
